<?xml version="1.0" standalone="no"?>
<!DOCTYPE svg PUBLIC "-//W3C//DTD SVG 20010904//EN"
 "http://www.w3.org/TR/2001/REC-SVG-20010904/DTD/svg10.dtd">
<svg version="1.0" xmlns="http://www.w3.org/2000/svg"
 width="204.000000pt" height="330.000000pt" viewBox="0 0 204.000000 330.000000"
 preserveAspectRatio="xMidYMid meet">
<metadata>
Created by potrace 1.16, written by Peter Selinger 2001-2019
</metadata>
<g transform="translate(0.000000,330.000000) scale(0.100000,-0.100000)"
fill="#000000" stroke="none">
<path d="M885 3280 c-22 -5 -60 -18 -85 -29 -25 -12 -34 -18 -20 -14 48 13
343 10 377 -5 25 -11 39 -11 74 -1 l42 13 -29 9 c-16 5 -58 9 -94 9 -55 1 -59
2 -25 7 l40 6 -34 8 c-43 9 -194 7 -246 -3z"/>
<path d="M656 2423 c-3 -10 -23 -83 -45 -163 -39 -141 -46 -155 -267 -575
-124 -236 -253 -479 -285 -538 l-59 -108 0 -192 0 -192 253 -159 c138 -87 358
-235 489 -327 264 -189 239 -179 398 -161 65 8 66 9 240 144 96 75 263 214
370 309 108 96 215 190 238 211 41 34 43 38 34 70 -30 108 -132 361 -250 618
-74 162 -172 376 -217 475 -45 99 -91 198 -102 220 -11 22 -38 112 -58 200
-21 88 -39 161 -41 163 -1 2 -45 -21 -97 -52 l-95 -56 -118 0 c-117 0 -120 1
-236 46 -94 36 -118 50 -118 65 0 24 -27 25 -34 2z"/>
</g>
</svg>
